<svg width="517" height="375" viewBox="0 0 517 375" fill="none" xmlns="http://www.w3.org/2000/svg">
<path d="M221.571 350.704C318.481 350.704 397.041 272.197 397.041 175.352C397.041 78.5079 318.481 0 221.571 0C124.662 0 46.1019 78.5079 46.1019 175.352C46.1019 272.197 124.662 350.704 221.571 350.704Z" fill="#F9FAFC"/>
<path d="M69.6233 375C108.075 375 139.247 370.016 139.247 363.868C139.247 357.72 108.075 352.735 69.6233 352.735C31.1714 352.735 0 357.72 0 363.868C0 370.016 31.1714 375 69.6233 375Z" fill="#F2F2F2"/>
<path d="M409.272 363.684C468.769 363.684 517 355.972 517 346.459C517 336.946 468.769 329.234 409.272 329.234C349.776 329.234 301.544 336.946 301.544 346.459C301.544 355.972 349.776 363.684 409.272 363.684Z" fill="#F2F2F2"/>
<path d="M385.337 180.892C385.337 180.892 386.254 183.947 381.057 186.697C375.86 189.447 374.331 199.834 380.445 202.889C386.56 205.945 388.394 209.916 385.337 212.666C382.28 215.416 376.777 222.748 384.114 224.581C391.451 226.414 392.368 230.08 390.228 231.608C388.088 233.136 395.12 228.858 395.12 228.858C395.12 228.858 396.343 236.191 402.763 234.358C409.183 232.525 427.22 197.696 418.049 192.807C408.877 187.919 385.337 180.892 385.337 180.892Z" fill="#2F2E41"/>
<path d="M396.418 210.393C396.418 210.393 399.589 221.485 394.039 222.277C390.595 222.814 387.332 224.173 384.526 226.239L394.832 239.707H413.859L425.752 227.823C425.752 227.823 409.895 215.939 413.067 208.808C416.238 201.678 396.418 210.393 396.418 210.393Z" fill="#FFB9B9"/>
<path opacity="0.1" d="M396.418 210.393C396.418 210.393 399.589 221.485 394.039 222.277C390.595 222.814 387.332 224.173 384.526 226.239L394.832 239.707H413.859L425.752 227.823C425.752 227.823 409.895 215.939 413.067 208.808C416.238 201.678 396.418 210.393 396.418 210.393Z" fill="black"/>
<path d="M401.175 348.25L419.409 354.588L432.094 355.38L431.301 344.288L405.138 336.556L401.175 348.25Z" fill="#FFB9B9"/>
<path d="M424.562 345.873C424.562 345.873 424.562 356.965 426.148 356.965C427.734 356.965 449.14 354.588 455.482 356.965C461.825 359.342 471.338 350.627 466.581 345.873C461.825 341.119 454.065 333.989 449.224 335.573C444.383 337.158 424.562 341.119 424.562 341.119V345.873Z" fill="#575A89"/>
<path d="M366.291 335.573C366.291 335.573 356.777 354.588 363.12 356.173C369.462 357.757 376.597 355.38 377.39 354.588C378.183 353.796 389.282 350.627 390.868 352.211C392.454 353.796 392.454 345.873 392.454 345.873L366.291 335.573Z" fill="#575A89"/>
<path d="M374.219 309.428C374.219 309.428 359.156 330.027 370.255 335.573C381.354 341.119 434.473 341.119 438.437 335.573C442.401 330.027 443.986 312.597 438.437 311.013C432.887 309.428 374.219 309.428 374.219 309.428Z" fill="#2F2E41"/>
<path opacity="0.2" d="M374.219 309.428C374.219 309.428 359.156 330.027 370.255 335.573C381.354 341.119 434.473 341.119 438.437 335.573C442.401 330.027 443.986 312.597 438.437 311.013C432.887 309.428 374.219 309.428 374.219 309.428Z" fill="black"/>
<path d="M402.76 215.939C412.831 215.939 420.995 207.78 420.995 197.716C420.995 187.652 412.831 179.494 402.76 179.494C392.689 179.494 384.526 187.652 384.526 197.716C384.526 207.78 392.689 215.939 402.76 215.939Z" fill="#FFB9B9"/>
<path d="M374.219 226.239L390.075 223.069C390.075 223.069 394.039 235.746 406.724 233.369C419.409 230.992 422.58 223.069 422.58 223.069C422.58 223.069 432.094 227.031 432.887 227.031C433.68 227.031 443.986 230.992 443.986 233.369C443.986 235.746 432.094 259.514 432.094 259.514L433.68 302.297L375.012 300.713L378.976 258.722L374.219 226.239Z" fill="#25265E"/>
<path d="M365.498 246.838C365.498 246.838 360.741 288.829 363.912 291.998C367.084 295.167 379.769 303.882 379.769 303.882V294.375L373.426 282.49L379.769 254.761L365.498 246.838Z" fill="#FFB9B9"/>
<path d="M447.554 245.649C447.554 245.649 444.779 288.829 444.779 290.413C444.779 291.998 437.644 297.544 435.265 297.544C432.887 297.544 431.301 293.582 431.301 293.582L436.851 287.244L432.887 254.761L447.554 245.649Z" fill="#FFB9B9"/>
<path d="M440.022 306.259C440.022 306.259 475.699 286.452 476.491 306.259C477.284 326.066 458.257 333.989 458.257 333.989C458.257 333.989 409.103 348.718 407.121 343.334C405.139 337.95 401.175 329.235 404.346 328.443C407.517 327.65 411.481 326.066 413.067 327.65C414.652 329.235 434.473 315.766 434.473 315.766L440.022 306.259Z" fill="#2F2E41"/>
<path opacity="0.2" d="M456.671 303.882C456.671 303.882 449.536 307.051 447.157 309.428C444.779 311.805 434.473 315.766 434.473 315.766" stroke="black" stroke-width="2" stroke-miterlimit="10"/>
<path d="M378.976 227.823L374.219 226.239C374.219 226.239 356.777 244.461 362.327 249.215C367.877 253.968 371.048 255.553 372.633 257.138C374.219 258.722 382.147 259.514 382.147 259.514L378.976 227.823Z" fill="#25265E"/>
<path d="M436.851 231.785L443.986 233.369C443.986 233.369 449.536 245.253 451.122 246.838C452.707 248.422 448.743 247.63 446.365 250.799C443.986 253.968 441.608 259.514 436.851 259.514C432.094 259.514 425.752 251.591 425.752 251.591L436.851 231.785Z" fill="#25265E"/>
<path d="M375.805 313.389C375.805 313.389 345.678 291.998 335.371 307.843C325.065 323.689 379.769 345.081 387.697 348.25C395.625 351.419 402.76 354.588 402.76 354.588C402.76 354.588 409.895 337.158 409.895 333.989C409.895 330.82 404.346 330.82 402.76 330.82C401.175 330.82 394.039 329.235 392.454 326.858C390.868 324.481 375.805 313.389 375.805 313.389Z" fill="#2F2E41"/>
<path opacity="0.2" d="M359.156 307.843C359.156 307.843 367.084 314.182 374.219 315.766C381.354 317.351 383.733 321.312 383.733 321.312" stroke="black" stroke-width="2" stroke-miterlimit="10"/>
<path d="M370.336 278.054L370.969 311.6C370.99 312.708 371.448 313.762 372.244 314.534C373.04 315.306 374.109 315.732 375.218 315.719L437.686 315.018C438.75 315.006 439.77 314.591 440.54 313.856C441.31 313.122 441.772 312.123 441.834 311.061L443.73 278.217C443.763 277.646 443.679 277.074 443.483 276.537C443.287 276 442.983 275.508 442.59 275.092C442.198 274.676 441.724 274.345 441.199 274.119C440.673 273.892 440.107 273.775 439.535 273.775H374.537C373.979 273.775 373.426 273.887 372.911 274.103C372.396 274.319 371.929 274.635 371.538 275.034C371.147 275.432 370.839 275.904 370.632 276.423C370.426 276.941 370.325 277.496 370.336 278.054Z" fill="#575A89"/>
<path d="M403.734 174.826C403.734 174.826 404.75 178.21 398.993 181.256C393.235 184.302 391.542 195.809 398.316 199.194C405.089 202.578 407.121 206.978 403.734 210.024C400.348 213.07 394.251 221.193 402.38 223.224C410.508 225.255 411.524 229.316 409.153 231.008C406.782 232.701 414.572 227.962 414.572 227.962C414.572 227.962 415.927 236.085 423.039 234.054C430.151 232.024 437.247 195.11 429.319 185.603C421.948 176.763 403.734 174.826 403.734 174.826Z" fill="#2F2E41"/>
<path d="M401.571 171.342C401.573 166.383 416.417 169.946 422.782 176.869C427.189 181.664 433.883 188.876 428.274 193.96C422.664 199.045 437.889 205.71 441.972 207.73C446.055 209.751 454.117 215.93 446.838 220.076C439.558 224.222 439.676 228.406 442.415 229.397C445.155 230.388 436.375 227.924 436.375 227.924C436.375 227.924 437.262 236.111 429.866 236.072C422.469 236.033 401.248 195.41 406.318 184.118C411.031 173.619 401.571 171.342 401.571 171.342Z" fill="#2F2E41"/>
<path d="M404.786 170.255C384.935 169.061 382.943 183.993 382.943 183.993C383.08 192.635 396.813 188.424 400.627 189.712C405.228 186.405 414.098 180.146 420.441 175.679C415.836 172.438 410.411 170.559 404.786 170.255Z" fill="#2F2E41"/>
<path d="M399.131 265.543C399.131 265.543 381.324 182.145 269.87 121.647" stroke="#3F3D56" stroke-width="2" stroke-miterlimit="10"/>
<path d="M274.462 119.828L274.685 120.742L270.177 121.835L271.597 126.248L270.701 126.536L268.972 121.159L274.462 119.828Z" fill="#3F3D56"/>
<path d="M32.2118 350.757C32.2118 361.32 25.9285 365.008 18.1771 365.008C17.9975 365.008 17.8182 365.006 17.6392 365.002C17.2801 364.994 16.9244 364.977 16.5729 364.953C9.57739 364.458 4.1424 360.58 4.1424 350.757C4.1424 340.591 17.1424 327.762 18.1189 326.813L18.1206 326.811C18.1583 326.775 18.1771 326.757 18.1771 326.757C18.1771 326.757 32.2118 340.194 32.2118 350.757Z" fill="#25265E"/>
<path d="M17.6657 363.392L22.7989 356.224L17.6529 364.179L17.6392 365.002C17.2801 364.994 16.9244 364.977 16.5729 364.953L17.1262 354.385L17.1219 354.303L17.1313 354.288L17.1835 353.29L12.0247 345.315L17.1997 352.541L17.2117 352.753L17.6298 344.768L13.2133 336.528L17.6837 343.367L18.1189 326.813L18.1206 326.757V326.811L18.048 339.865L22.4449 334.69L18.03 340.99L17.9137 348.138L22.019 341.278L17.8966 349.19L17.8316 353.165L23.7916 343.615L17.8094 354.552L17.6657 363.392Z" fill="#3F3D56"/>
<path d="M99.1536 348.02L102.156 345.791C102.156 345.791 104.143 356.884 101.925 358.547C99.708 360.209 91.3922 362.979 91.3922 366.303C91.3922 369.627 72.5433 374.059 71.9889 369.073C71.4345 364.087 73.652 361.317 73.652 361.317C73.652 361.317 82.5221 352.452 83.6309 350.79C84.7397 349.128 87.5116 345.804 87.5116 345.804L99.1536 348.02Z" fill="#2F2E41"/>
<path d="M54.8031 210.072C54.8031 210.072 54.8863 210.559 55.0303 211.451C55.1635 212.243 55.3464 213.363 55.5681 214.742C57.8966 228.941 64.6878 270.741 64.2276 272.121C63.6732 273.783 59.7925 279.877 64.2276 281.539C64.6545 281.7 65.1146 282.22 65.608 283.04C66.5603 284.806 67.3454 286.657 67.953 288.569C70.5974 296.237 73.4248 308.508 75.0602 317.007C75.7754 320.741 76.2632 323.744 76.4073 325.317C76.4574 325.681 76.463 326.049 76.4239 326.414C75.8696 328.63 79.7502 336.386 81.4134 338.602C83.0765 340.818 85.8484 343.034 85.294 345.25C84.7396 347.466 99.1535 353.56 100.817 349.682C102.48 345.804 102.48 343.588 103.034 342.48C103.589 341.372 104.143 333.616 101.371 332.508C98.5992 331.4 100.262 312.01 97.4904 308.132C96.5646 306.841 95.1509 302.47 93.6707 297.212C93.0887 295.151 92.501 292.957 91.9244 290.758C89.5849 281.744 87.5116 272.675 87.5116 272.675L88.0659 207.856L57.575 203.978L56.7934 205.701L55.2355 209.119L54.8031 210.072Z" fill="#2F2E41"/>
<path d="M53.14 316.442C53.14 316.442 48.7049 312.01 46.4874 316.442C44.2699 320.874 42.0524 338.048 38.1717 341.926C34.291 345.804 29.3016 365.195 34.8454 366.303C40.3892 367.411 46.4874 364.641 47.0418 361.316C47.5962 357.992 59.2381 340.818 59.2381 339.156C59.2381 337.494 51.4768 331.4 51.4768 331.4L53.14 316.442Z" fill="#2F2E41"/>
<path d="M121.329 179.601C121.329 179.601 114.122 244.42 112.459 250.514C110.796 256.609 101.925 279.877 99.1536 283.755C96.3817 287.633 78.6415 319.212 76.424 320.874C74.2064 322.536 69.7714 326.968 69.7714 326.968C69.7714 326.968 61.4557 335.278 60.3469 336.94C59.2382 338.602 49.8137 333.616 49.2593 330.292C48.7049 326.968 49.8137 321.428 50.3681 319.212C50.9224 316.996 49.2593 313.672 50.9225 312.01C52.5856 310.348 60.9013 302.037 60.9013 298.159C60.9013 294.281 75.3152 271.567 80.859 266.581C86.4028 261.595 85.294 253.285 85.294 253.285V219.49L54.8031 210.072C54.8031 210.072 56.4663 183.479 60.3469 183.479C64.2276 183.479 115.231 174.615 121.329 179.601Z" fill="#2F2E41"/>
<path d="M76.424 87.0816C86.5278 87.0816 94.7185 78.8963 94.7185 68.7992C94.7185 58.7022 86.5278 50.5169 76.424 50.5169C66.3202 50.5169 58.1294 58.7022 58.1294 68.7992C58.1294 78.8963 66.3202 87.0816 76.424 87.0816Z" fill="#9F616A"/>
<path d="M82.5221 83.2035C82.5221 83.2035 84.7397 91.5136 87.5116 93.7297C90.2835 95.9457 80.3046 105.364 80.3046 105.364L61.4557 106.472L58.1294 95.9457C58.1294 95.9457 64.2276 83.7575 62.5644 76.0013C60.9013 68.2452 82.5221 83.2035 82.5221 83.2035Z" fill="#9F616A"/>
<path d="M90.2835 92.6216C90.2835 92.6216 85.294 93.1757 84.1853 94.8377C83.0765 96.4997 75.3152 101.486 69.217 100.378C63.1188 99.2698 59.2381 97.6077 58.1294 98.1617C57.0206 98.7157 54.8031 110.35 54.8031 110.35L60.9013 128.078L59.7925 176.831L58.1294 190.127C58.1294 190.127 54.8031 185.695 68.1082 188.465C81.4134 191.235 98.5992 186.249 104.143 185.695C109.687 185.141 119.111 183.479 119.666 180.155C120.22 176.831 118.002 164.643 118.002 164.643L109.132 127.524L103.589 107.58L90.2835 92.6216Z" fill="#25265E"/>
<path d="M85.0396 90.1212C85.0396 90.1212 89.7291 87.6356 91.3922 89.8516C93.0554 92.0676 114.122 95.3917 114.122 97.0537C114.122 98.7158 118.557 143.591 117.448 147.469C116.339 151.347 119.666 155.779 119.666 155.779L123.546 172.399C123.546 172.399 134.08 203.978 129.645 205.086C125.209 206.194 121.329 205.086 119.666 205.086C118.003 205.086 118.557 184.033 114.122 178.493C109.687 172.953 103.589 159.103 102.48 156.333C101.371 153.563 87.5116 115.336 88.0659 110.904C88.6203 106.472 85.0396 90.1212 85.0396 90.1212Z" fill="#D0CDE1"/>
<path d="M62.01 92.6216C62.01 92.6216 57.575 92.6216 57.0206 93.7297C56.4662 94.8377 50.9224 102.04 48.7049 103.702C46.4874 105.364 38.7261 112.566 38.7261 114.228C38.7261 115.89 54.8031 128.078 54.8031 128.078C54.8031 128.078 61.4557 160.765 58.1294 171.845C54.8031 182.925 49.8137 209.518 52.0312 211.18C54.2487 212.842 59.2382 213.396 59.2382 211.18C59.2382 208.964 62.5644 185.141 65.3363 180.155C68.1083 175.169 76.424 143.591 73.0977 134.726C69.7714 125.862 62.01 92.6216 62.01 92.6216Z" fill="#D0CDE1"/>
<path d="M135.188 147.469C135.188 147.469 135.743 164.643 129.644 173.507C123.546 182.371 119.666 192.343 119.666 192.343C119.666 192.343 109.687 189.573 108.024 186.249C106.361 182.925 95.8273 185.695 95.8273 184.587C95.8273 183.479 108.578 177.939 109.687 176.831C110.796 175.723 114.676 175.723 116.894 173.507C119.111 171.291 119.666 166.305 119.666 166.305L121.883 151.901L135.188 147.469Z" fill="#9F616A"/>
<path d="M89.0243 57.5267C90.4317 57.399 91.8832 57.2584 93.1271 56.588C95.9142 55.086 96.6532 50.8085 94.5316 48.4595C93.9466 47.8618 93.2923 47.336 92.5825 46.8933L88.3685 44.027C86.5047 42.7592 84.5969 41.4707 82.4232 40.8731C80.457 40.3326 78.3805 40.3881 76.3452 40.5145C72.3943 40.7599 68.4189 41.2668 64.7028 42.63C60.9867 43.9932 57.5202 46.2738 55.2696 49.5282C51.7016 54.6873 51.6525 61.6453 53.6177 67.6012C55.5828 73.5571 59.3157 78.7435 62.9938 83.8248L64.9023 74.519C65.0723 73.6901 65.2921 72.7817 65.9819 72.2912C67.6964 71.072 69.7936 73.5753 71.8979 73.559C73.2499 73.5486 74.385 72.4373 74.8974 71.1869C75.4098 69.9365 75.4435 68.5518 75.5621 67.2058C75.8132 64.3549 76.8103 60.3882 79.5119 58.8159C82.0293 57.3508 86.1946 57.7836 89.0243 57.5267Z" fill="#2F2E41"/>
<path opacity="0.1" d="M87.998 210.519C87.998 210.519 86.1256 264.642 85.0169 266.304C83.9081 267.966 85.0169 210.349 85.0169 210.349L87.998 210.519Z" fill="black"/>
<path d="M109.687 97.0537H114.122C114.122 97.0537 132.971 122.538 130.753 124.2C128.536 125.862 130.753 130.294 130.753 130.294L135.188 138.604C135.188 138.604 140.732 143.591 139.069 144.699C137.406 145.807 135.188 150.239 135.188 150.239C135.188 150.239 124.101 148.577 120.774 155.225L113.584 146.154L109.687 97.0537Z" fill="#D0CDE1"/>
<path d="M111.254 105.251L96.0358 111.531L107.747 139.872L122.965 133.592L111.254 105.251Z" fill="#2F2E41"/>
<path d="M109.471 121.873C111.152 121.179 111.997 119.366 111.36 117.823C110.722 116.28 108.842 115.591 107.161 116.285C105.48 116.978 104.635 118.792 105.272 120.335C105.91 121.878 107.79 122.567 109.471 121.873Z" fill="#25265E"/>
<path d="M98.5992 141.375C98.5992 141.375 58.6838 174.615 52.0312 164.089C45.3786 153.563 59.2382 144.699 59.2382 144.699C59.2382 144.699 71.4345 145.253 85.2941 136.388L99.1536 130.294C99.1536 130.294 111.806 112.242 116.118 119.116C120.429 125.99 108.758 137.954 98.5992 141.375Z" fill="#9F616A"/>
<path d="M44.8243 112.012L38.7261 114.228V130.848L36.5085 134.172C36.5085 134.172 37.0629 140.821 38.7261 142.483C40.3892 144.145 43.7155 143.591 42.6067 147.469C41.9404 149.997 41.7523 152.627 42.0523 155.225C42.0523 155.225 52.0312 167.967 52.5856 166.305C53.14 164.643 60.9013 144.145 62.0101 144.145C63.1188 144.145 50.9224 112.012 50.9224 112.012H44.8243Z" fill="#D0CDE1"/>
<path d="M117.725 195.945C117.725 195.945 123.457 190.404 120.591 190.127C117.725 189.85 107.746 184.31 106.083 187.08C104.42 189.85 117.725 195.945 117.725 195.945Z" fill="#2F2E41"/>
<path d="M226.746 90.2619C231.163 90.2619 234.743 88.3676 234.743 86.0308C234.743 83.6941 231.163 81.7998 226.746 81.7998C222.329 81.7998 218.749 83.6941 218.749 86.0308C218.749 88.3676 222.329 90.2619 226.746 90.2619Z" fill="#57B894"/>
<path d="M257.324 100.134C239.291 93.3281 221.258 93.3281 203.225 100.134V78.0389C220.865 72.7194 239.684 72.7194 257.324 78.0389V100.134Z" stroke="#3F3D56" stroke-width="2" stroke-miterlimit="10"/>
<path d="M249.797 95.5648C236.782 90.6525 223.767 90.6525 210.752 95.5648V79.6177C223.483 75.7785 237.065 75.7785 249.797 79.6177V95.5648Z" stroke="#3F3D56" stroke-width="2" stroke-miterlimit="10"/>
<path d="M229.569 88.3814C233.985 88.3814 237.566 86.4871 237.566 84.1504C237.566 81.8137 233.985 79.9194 229.569 79.9194C225.152 79.9194 221.571 81.8137 221.571 84.1504C221.571 86.4871 225.152 88.3814 229.569 88.3814Z" stroke="#3F3D56" stroke-width="2" stroke-miterlimit="10"/>
<path d="M232.626 116.759C236.954 115.876 240.083 113.305 239.616 111.015C239.148 108.726 235.261 107.585 230.933 108.468C226.606 109.351 223.476 111.922 223.944 114.212C224.412 116.501 228.299 117.642 232.626 116.759Z" fill="#57B894"/>
<path d="M264.562 120.321C245.531 117.256 227.863 120.86 211.556 131.133L207.134 109.484C223.354 100.746 241.792 96.9856 260.141 98.6724L264.562 120.321Z" stroke="#3F3D56" stroke-width="2" stroke-miterlimit="10"/>
<path d="M256.273 117.348C242.538 115.136 229.785 117.737 218.016 125.151L214.825 109.526C226.531 103.22 239.839 100.506 253.082 101.724L256.273 117.348Z" stroke="#3F3D56" stroke-width="2" stroke-miterlimit="10"/>
<path d="M235.016 114.353C239.343 113.47 242.472 110.898 242.005 108.609C241.537 106.319 237.65 105.179 233.322 106.061C228.995 106.944 225.866 109.516 226.333 111.805C226.801 114.095 230.688 115.235 235.016 114.353Z" stroke="#3F3D56" stroke-width="2" stroke-miterlimit="10"/>
<path d="M238.099 139.466C238.262 137.135 234.821 134.997 230.415 134.691C226.009 134.384 222.306 136.026 222.143 138.357C221.981 140.688 225.421 142.826 229.827 143.132C234.234 143.439 237.937 141.797 238.099 139.466Z" fill="#57B894"/>
<path d="M259.646 155.102C242.129 147.061 224.139 145.81 205.677 151.349L207.212 129.307C225.179 125.224 243.952 126.53 261.181 133.06L259.646 155.102Z" stroke="#3F3D56" stroke-width="2" stroke-miterlimit="10"/>
<path d="M252.454 150.022C239.812 144.218 226.828 143.315 213.503 147.313L214.611 131.404C227.579 128.457 241.128 129.4 253.562 134.113L252.454 150.022Z" stroke="#3F3D56" stroke-width="2" stroke-miterlimit="10"/>
<path d="M241.046 137.786C241.208 135.455 237.768 133.317 233.362 133.011C228.956 132.704 225.252 134.345 225.09 136.677C224.927 139.008 228.368 141.146 232.774 141.452C237.18 141.759 240.883 140.117 241.046 137.786Z" stroke="#3F3D56" stroke-width="2" stroke-miterlimit="10"/>
<path d="M195.191 100.647C195.191 100.647 160.616 95.9204 135.925 110.38" stroke="#3F3D56" stroke-width="2" stroke-miterlimit="10"/>
<path d="M136.757 105.521L137.655 105.805L136.251 110.224L140.765 111.3L140.545 112.215L135.049 110.903L136.757 105.521Z" fill="#3F3D56"/>
</svg>
