<svg width="130" height="40" viewBox="0 0 130 40" fill="none" xmlns="http://www.w3.org/2000/svg">
<path d="M10.6557 0H29.3443C35.2293 0 40 4.77074 40 10.6557V29.3443C40 35.2293 35.2293 40 29.3443 40H10.6557C4.77074 40 0 35.2293 0 29.3443V10.6557C0 4.77074 4.77074 0 10.6557 0Z" fill="#F9F9F9"/>
<mask id="mask0" mask-type="alpha" maskUnits="userSpaceOnUse" x="0" y="0" width="40" height="40">
<path fill-rule="evenodd" clip-rule="evenodd" d="M10.6557 0H29.3443C35.2293 0 40 4.77074 40 10.6557V29.3443C40 35.2293 35.2293 40 29.3443 40H10.6557C4.77074 40 0 35.2293 0 29.3443V10.6557C0 4.77074 4.77074 0 10.6557 0Z" fill="white"/>
</mask>
<g mask="url(#mask0)">
<path opacity="0.0203683" d="M13.7808 3.125H32.4693C38.3543 3.125 43.1251 7.89574 43.1251 13.7807V32.4693C43.1251 38.3543 38.3543 43.125 32.4693 43.125H13.7808C7.8958 43.125 3.12506 38.3543 3.12506 32.4693V13.7807C3.12506 7.89574 7.8958 3.125 13.7808 3.125Z" fill="black"/>
</g>
<path d="M6.80331 16.3934C7.39181 16.3934 7.86889 15.9163 7.86889 15.3278C7.86889 14.7393 7.39181 14.2622 6.80331 14.2622C6.21481 14.2622 5.73773 14.7393 5.73773 15.3278C5.73773 15.9163 6.21481 16.3934 6.80331 16.3934Z" fill="black"/>
<path fill-rule="evenodd" clip-rule="evenodd" d="M6.80331 16.3934C7.39181 16.3934 7.86889 15.9163 7.86889 15.3278C7.86889 14.7393 7.39181 14.2622 6.80331 14.2622C6.21481 14.2622 5.73773 14.7393 5.73773 15.3278C5.73773 15.9163 6.21481 16.3934 6.80331 16.3934Z" fill="#25265E"/>
<path d="M32.8688 16.3934C33.4573 16.3934 33.9344 15.9163 33.9344 15.3278C33.9344 14.7393 33.4573 14.2622 32.8688 14.2622C32.2803 14.2622 31.8032 14.7393 31.8032 15.3278C31.8032 15.9163 32.2803 16.3934 32.8688 16.3934Z" fill="black"/>
<path fill-rule="evenodd" clip-rule="evenodd" d="M32.8688 16.3934C33.4573 16.3934 33.9344 15.9163 33.9344 15.3278C33.9344 14.7393 33.4573 14.2622 32.8688 14.2622C32.2803 14.2622 31.8032 14.7393 31.8032 15.3278C31.8032 15.9163 32.2803 16.3934 32.8688 16.3934Z" fill="#25265E"/>
<path d="M8.86475 18.3606H9.25035C9.31212 18.3606 9.36865 18.3953 9.39658 18.4504C11.8114 23.2162 15.3502 25.5991 20.0129 25.5991C24.6748 25.5991 28.1587 23.2171 30.4646 18.4531C30.492 18.3965 30.5493 18.3606 30.6122 18.3606H31.083C31.1736 18.3606 31.247 18.434 31.247 18.5245C31.247 18.5299 31.2467 18.5353 31.2462 18.5407C31.1045 19.9711 30.8588 21.2424 30.5091 22.3548C29.2006 26.5168 24.7745 29.5805 19.975 29.5805C15.2973 29.5805 11.5143 26.8543 9.67006 22.8903C9.16173 21.7977 8.83881 20.3466 8.70128 18.5369C8.69443 18.4467 8.76205 18.3679 8.85233 18.3611C8.85646 18.3608 8.8606 18.3606 8.86475 18.3606Z" fill="#25265E"/>
<path fill-rule="evenodd" clip-rule="evenodd" d="M60.5669 9.93686C62.2253 9.93686 63.7383 10.3247 65.1059 11.1003C66.4735 11.8759 67.545 12.9384 68.3203 14.2878C69.0957 15.6372 69.4833 17.1406 69.4833 18.7981C69.4833 20.4556 69.1226 21.959 68.4011 23.3084C67.6796 24.6578 66.6889 25.715 65.4289 26.48C64.169 27.245 62.7637 27.6275 61.2131 27.6275C59.9639 27.6275 58.8009 27.3725 57.724 26.8625C56.6472 26.3525 55.7318 25.6406 54.978 24.7269V33.3331C54.978 33.8219 54.8273 34.215 54.5258 34.5125C54.2242 34.81 53.8258 34.9587 53.3305 34.9587C52.8566 34.9587 52.4636 34.81 52.1513 34.5125C51.839 34.215 51.6829 33.8219 51.6829 33.3331V18.7981C51.6829 17.1406 52.0759 15.6372 52.862 14.2878C53.6481 12.9384 54.7142 11.8759 56.0603 11.1003C57.4064 10.3247 58.9086 9.93686 60.5669 9.93686ZM60.5669 24.7587C61.6438 24.7587 62.6183 24.4984 63.4906 23.9778C64.3629 23.4572 65.052 22.7453 65.5582 21.8422C66.0643 20.939 66.3174 19.9244 66.3174 18.7981C66.3174 17.6719 66.0643 16.6519 65.5582 15.7381C65.052 14.8244 64.3629 14.1072 63.4906 13.5865C62.6183 13.0659 61.6438 12.8056 60.5669 12.8056C59.4901 12.8056 58.5155 13.0659 57.6433 13.5865C56.771 14.1072 56.0872 14.8244 55.5918 15.7381C55.0965 16.6519 54.8488 17.6719 54.8488 18.7981C54.8488 19.9244 55.0965 20.939 55.5918 21.8422C56.0872 22.7453 56.771 23.4572 57.6433 23.9778C58.5155 24.4984 59.4901 24.7587 60.5669 24.7587ZM86.9123 11.1003C85.5662 10.3247 84.064 9.93687 82.4056 9.93687C80.7472 9.93687 79.2343 10.3247 77.8667 11.1003C76.499 11.8759 75.4276 12.9384 74.6522 14.2878C73.8769 15.6372 73.4892 17.1406 73.4892 18.7981C73.4892 20.4556 73.85 21.959 74.5715 23.3084C75.293 24.6578 76.2837 25.715 77.5436 26.48C78.8035 27.245 80.2088 27.6275 81.7595 27.6275C83.0087 27.6275 84.1717 27.3725 85.2485 26.8625C86.3254 26.3525 87.2407 25.6406 87.9945 24.7269V25.9062C87.9945 26.3737 88.1507 26.7616 88.4629 27.0697C88.7752 27.3778 89.1683 27.5319 89.6421 27.5319C90.1159 27.5319 90.509 27.3778 90.8213 27.0697C91.1335 26.7616 91.2897 26.3737 91.2897 25.9062V18.7981C91.2897 17.1406 90.8966 15.6372 90.1105 14.2878C89.3244 12.9384 88.2583 11.8759 86.9123 11.1003ZM82.4056 24.7587C83.4825 24.7587 84.457 24.4984 85.3293 23.9778C86.2015 23.4572 86.8853 22.7453 87.3807 21.8422C87.876 20.939 88.1237 19.9244 88.1237 18.7981C88.1237 17.6719 87.876 16.6519 87.3807 15.7381C86.8853 14.8244 86.2015 14.1072 85.3293 13.5865C84.457 13.0659 83.4825 12.8056 82.4056 12.8056C81.3287 12.8056 80.3542 13.0659 79.4819 13.5865C78.6097 14.1072 77.9205 14.8244 77.4144 15.7381C76.9082 16.6519 76.6552 17.6719 76.6552 18.7981C76.6552 19.9244 76.9082 20.939 77.4144 21.8422C77.9205 22.7453 78.6097 23.4572 79.4819 23.9778C80.3542 24.4984 81.3287 24.7587 82.4056 24.7587ZM110.705 11.4669C110.705 10.8931 110.372 10.4787 109.704 10.2237C109.467 10.1175 109.209 10.0644 108.929 10.0644C108.369 10.0644 107.949 10.3725 107.669 10.9887L102.467 22.5594L96.5555 10.9569C96.254 10.3619 95.8017 10.0644 95.1986 10.0644C94.9617 10.0644 94.7464 10.1069 94.5525 10.1919C94.2725 10.3194 94.0464 10.5 93.8741 10.7337C93.7018 10.9675 93.6157 11.2225 93.6157 11.4987C93.6157 11.7537 93.6695 11.9769 93.7772 12.1681L101.046 25.7787L97.8154 32.9506C97.6862 33.2056 97.6216 33.4606 97.6216 33.7156C97.6216 34.2681 97.9446 34.6825 98.5907 34.9587C98.8923 35.0862 99.1507 35.15 99.3661 35.15C99.9476 35.15 100.368 34.8206 100.626 34.1619L110.512 12.2319C110.641 11.9344 110.705 11.6794 110.705 11.4669ZM120.979 27.6275C119.256 27.6275 117.716 27.2503 116.359 26.4959C115.002 25.7415 113.947 24.695 113.193 23.3562C112.439 22.0175 112.062 20.4981 112.062 18.7981C112.062 17.0769 112.439 15.5469 113.193 14.2081C113.947 12.8694 115.002 11.8228 116.359 11.0684C117.716 10.3141 119.256 9.93687 120.979 9.93687C122.68 9.93687 124.204 10.3141 125.55 11.0684C126.896 11.8228 127.951 12.8694 128.716 14.2081C129.48 15.5469 129.863 17.0769 129.863 18.7981C129.863 20.4981 129.486 22.0175 128.732 23.3562C127.978 24.695 126.928 25.7415 125.582 26.4959C124.236 27.2503 122.702 27.6275 120.979 27.6275ZM123.935 23.9937C123.062 24.5037 122.077 24.7587 120.979 24.7587C119.88 24.7587 118.895 24.5037 118.023 23.9937C117.15 23.4837 116.467 22.7772 115.971 21.874C115.476 20.9709 115.228 19.9456 115.228 18.7981C115.228 17.6506 115.476 16.62 115.971 15.7062C116.467 14.7925 117.15 14.0806 118.023 13.5706C118.895 13.0606 119.88 12.8056 120.979 12.8056C122.077 12.8056 123.062 13.0606 123.935 13.5706C124.807 14.0806 125.485 14.7925 125.97 15.7062C126.454 16.62 126.697 17.6506 126.697 18.7981C126.697 19.9456 126.454 20.9709 125.97 21.874C125.485 22.7772 124.807 23.4837 123.935 23.9937Z" fill="black"/>
<path fill-rule="evenodd" clip-rule="evenodd" d="M60.5669 9.93686C62.2253 9.93686 63.7383 10.3247 65.1059 11.1003C66.4735 11.8759 67.545 12.9384 68.3203 14.2878C69.0957 15.6372 69.4833 17.1406 69.4833 18.7981C69.4833 20.4556 69.1226 21.959 68.4011 23.3084C67.6796 24.6578 66.6889 25.715 65.4289 26.48C64.169 27.245 62.7637 27.6275 61.2131 27.6275C59.9639 27.6275 58.8009 27.3725 57.724 26.8625C56.6472 26.3525 55.7318 25.6406 54.978 24.7269V33.3331C54.978 33.8219 54.8273 34.215 54.5258 34.5125C54.2242 34.81 53.8258 34.9587 53.3305 34.9587C52.8566 34.9587 52.4636 34.81 52.1513 34.5125C51.839 34.215 51.6829 33.8219 51.6829 33.3331V18.7981C51.6829 17.1406 52.0759 15.6372 52.862 14.2878C53.6481 12.9384 54.7142 11.8759 56.0603 11.1003C57.4064 10.3247 58.9086 9.93686 60.5669 9.93686ZM60.5669 24.7587C61.6438 24.7587 62.6183 24.4984 63.4906 23.9778C64.3629 23.4572 65.052 22.7453 65.5582 21.8422C66.0643 20.939 66.3174 19.9244 66.3174 18.7981C66.3174 17.6719 66.0643 16.6519 65.5582 15.7381C65.052 14.8244 64.3629 14.1072 63.4906 13.5865C62.6183 13.0659 61.6438 12.8056 60.5669 12.8056C59.4901 12.8056 58.5155 13.0659 57.6433 13.5865C56.771 14.1072 56.0872 14.8244 55.5918 15.7381C55.0965 16.6519 54.8488 17.6719 54.8488 18.7981C54.8488 19.9244 55.0965 20.939 55.5918 21.8422C56.0872 22.7453 56.771 23.4572 57.6433 23.9778C58.5155 24.4984 59.4901 24.7587 60.5669 24.7587ZM86.9123 11.1003C85.5662 10.3247 84.064 9.93687 82.4056 9.93687C80.7472 9.93687 79.2343 10.3247 77.8667 11.1003C76.499 11.8759 75.4276 12.9384 74.6522 14.2878C73.8769 15.6372 73.4892 17.1406 73.4892 18.7981C73.4892 20.4556 73.85 21.959 74.5715 23.3084C75.293 24.6578 76.2837 25.715 77.5436 26.48C78.8035 27.245 80.2088 27.6275 81.7595 27.6275C83.0087 27.6275 84.1717 27.3725 85.2485 26.8625C86.3254 26.3525 87.2407 25.6406 87.9945 24.7269V25.9062C87.9945 26.3737 88.1507 26.7616 88.4629 27.0697C88.7752 27.3778 89.1683 27.5319 89.6421 27.5319C90.1159 27.5319 90.509 27.3778 90.8213 27.0697C91.1335 26.7616 91.2897 26.3737 91.2897 25.9062V18.7981C91.2897 17.1406 90.8966 15.6372 90.1105 14.2878C89.3244 12.9384 88.2583 11.8759 86.9123 11.1003ZM82.4056 24.7587C83.4825 24.7587 84.457 24.4984 85.3293 23.9778C86.2015 23.4572 86.8853 22.7453 87.3807 21.8422C87.876 20.939 88.1237 19.9244 88.1237 18.7981C88.1237 17.6719 87.876 16.6519 87.3807 15.7381C86.8853 14.8244 86.2015 14.1072 85.3293 13.5865C84.457 13.0659 83.4825 12.8056 82.4056 12.8056C81.3287 12.8056 80.3542 13.0659 79.4819 13.5865C78.6097 14.1072 77.9205 14.8244 77.4144 15.7381C76.9082 16.6519 76.6552 17.6719 76.6552 18.7981C76.6552 19.9244 76.9082 20.939 77.4144 21.8422C77.9205 22.7453 78.6097 23.4572 79.4819 23.9778C80.3542 24.4984 81.3287 24.7587 82.4056 24.7587ZM110.705 11.4669C110.705 10.8931 110.372 10.4787 109.704 10.2237C109.467 10.1175 109.209 10.0644 108.929 10.0644C108.369 10.0644 107.949 10.3725 107.669 10.9887L102.467 22.5594L96.5555 10.9569C96.254 10.3619 95.8017 10.0644 95.1986 10.0644C94.9617 10.0644 94.7464 10.1069 94.5525 10.1919C94.2725 10.3194 94.0464 10.5 93.8741 10.7337C93.7018 10.9675 93.6157 11.2225 93.6157 11.4987C93.6157 11.7537 93.6695 11.9769 93.7772 12.1681L101.046 25.7787L97.8154 32.9506C97.6862 33.2056 97.6216 33.4606 97.6216 33.7156C97.6216 34.2681 97.9446 34.6825 98.5907 34.9587C98.8923 35.0862 99.1507 35.15 99.3661 35.15C99.9476 35.15 100.368 34.8206 100.626 34.1619L110.512 12.2319C110.641 11.9344 110.705 11.6794 110.705 11.4669ZM120.979 27.6275C119.256 27.6275 117.716 27.2503 116.359 26.4959C115.002 25.7415 113.947 24.695 113.193 23.3562C112.439 22.0175 112.062 20.4981 112.062 18.7981C112.062 17.0769 112.439 15.5469 113.193 14.2081C113.947 12.8694 115.002 11.8228 116.359 11.0684C117.716 10.3141 119.256 9.93687 120.979 9.93687C122.68 9.93687 124.204 10.3141 125.55 11.0684C126.896 11.8228 127.951 12.8694 128.716 14.2081C129.48 15.5469 129.863 17.0769 129.863 18.7981C129.863 20.4981 129.486 22.0175 128.732 23.3562C127.978 24.695 126.928 25.7415 125.582 26.4959C124.236 27.2503 122.702 27.6275 120.979 27.6275ZM123.935 23.9937C123.062 24.5037 122.077 24.7587 120.979 24.7587C119.88 24.7587 118.895 24.5037 118.023 23.9937C117.15 23.4837 116.467 22.7772 115.971 21.874C115.476 20.9709 115.228 19.9456 115.228 18.7981C115.228 17.6506 115.476 16.62 115.971 15.7062C116.467 14.7925 117.15 14.0806 118.023 13.5706C118.895 13.0606 119.88 12.8056 120.979 12.8056C122.077 12.8056 123.062 13.0606 123.935 13.5706C124.807 14.0806 125.485 14.7925 125.97 15.7062C126.454 16.62 126.697 17.6506 126.697 18.7981C126.697 19.9456 126.454 20.9709 125.97 21.874C125.485 22.7772 124.807 23.4837 123.935 23.9937Z" fill="#25265E"/>
</svg>
