<svg width="40" height="40" viewBox="0 0 40 40" fill="none" xmlns="http://www.w3.org/2000/svg">
<g clip-path="url(#clip0)">
<path d="M2 30V7C2 4.23858 4.23858 2 7 2H33C35.7614 2 38 4.23858 38 7V33C38 35.7614 35.7614 38 33 38H6" stroke="#2CC4F9" stroke-width="4" stroke-linecap="round" stroke-linejoin="round"/>
<path d="M11 22V28" stroke="#25265E" stroke-width="4" stroke-linecap="round" stroke-linejoin="round"/>
<path d="M29 18V28" stroke="#25265E" stroke-width="4" stroke-linecap="round" stroke-linejoin="round"/>
<path d="M20 12V28" stroke="#2CC4F9" stroke-width="4" stroke-linecap="round" stroke-linejoin="round"/>
<path d="M29 14C30.1046 14 31 13.1046 31 12C31 10.8954 30.1046 10 29 10C27.8954 10 27 10.8954 27 12C27 13.1046 27.8954 14 29 14Z" fill="#FF9F00"/>
</g>
<defs>
<clipPath id="clip0">
<rect width="40" height="40" fill="white"/>
</clipPath>
</defs>
</svg>
